<?xml version="1.0" standalone="no"?>
<!DOCTYPE svg PUBLIC "-//W3C//DTD SVG 20010904//EN"
 "http://www.w3.org/TR/2001/REC-SVG-20010904/DTD/svg10.dtd">
<svg version="1.0" xmlns="http://www.w3.org/2000/svg"
 width="4000.000000pt" height="4000.000000pt" viewBox="0 0 4000.000000 4000.000000"
 preserveAspectRatio="xMidYMid meet">

<g transform="translate(0.000000,4000.000000) scale(0.100000,-0.100000)"
fill="#000000" stroke="none">
<path d="M17060 29979 c-30 -4 -89 -13 -130 -20 -414 -63 -821 -246 -1158
-519 -104 -84 -7732 -7709 -7844 -7840 -151 -177 -254 -335 -357 -545 -85
-172 -133 -300 -177 -470 -63 -246 -68 -292 -69 -605 0 -257 2 -298 24 -415
84 -463 280 -860 608 -1227 56 -63 751 -760 1545 -1550 1329 -1324 2748 -2743
4813 -4815 445 -447 815 -813 821 -813 15 0 28 34 54 140 23 92 63 217 85 265
8 17 21 57 30 90 9 33 23 85 31 115 20 71 102 316 119 355 22 53 34 88 55 175
22 87 81 271 105 325 22 53 34 88 55 175 22 86 100 329 125 385 22 53 34 88
55 175 22 87 81 271 105 325 22 53 34 88 55 175 22 86 100 329 125 385 22 53
34 88 55 175 23 90 82 275 105 325 8 17 21 56 29 88 39 143 50 180 93 307 24
74 50 149 58 165 22 53 34 88 55 175 22 87 81 271 105 325 23 53 34 88 55 175
24 94 117 379 130 395 5 6 11 27 15 49 l8 38 -1761 1762 -1761 1761 2906 2910
c1599 1601 2940 2948 2981 2995 266 304 474 727 552 1128 74 377 64 741 -29
1111 -139 546 -464 1031 -922 1373 -354 264 -723 412 -1184 473 -120 16 -471
19 -565 4z"/>
<path d="M25640 28766 c0 -17 -94 -303 -114 -350 -23 -53 -35 -88 -56 -176
-23 -90 -82 -275 -105 -325 -8 -16 -21 -56 -29 -87 -39 -144 -50 -181 -93
-308 -24 -74 -50 -148 -58 -165 -22 -53 -34 -88 -55 -175 -23 -90 -82 -275
-105 -325 -8 -16 -21 -57 -30 -90 -9 -33 -23 -85 -31 -115 -20 -71 -102 -316
-119 -355 -22 -53 -34 -88 -55 -175 -23 -90 -82 -275 -105 -325 -8 -16 -21
-57 -30 -90 -9 -33 -23 -85 -31 -115 -20 -71 -102 -316 -119 -355 -22 -53 -34
-88 -55 -175 -23 -90 -102 -334 -125 -385 -8 -16 -24 -68 -35 -115 -22 -86
-100 -330 -125 -385 -22 -53 -34 -88 -55 -175 -23 -90 -102 -334 -125 -385 -8
-16 -20 -55 -28 -86 l-14 -56 1744 -1746 c960 -960 1744 -1750 1742 -1756 -5
-13 -1039 -1052 -3669 -3686 -2355 -2359 -2284 -2285 -2438 -2532 -405 -648
-484 -1454 -216 -2182 121 -329 342 -664 603 -914 454 -435 1006 -669 1636
-693 573 -22 1116 151 1595 508 128 96 7801 7766 7937 7934 550 682 714 1559
440 2359 -90 263 -242 533 -422 750 -57 69 -7239 7265 -7251 7265 -2 0 -4 -6
-4 -14z"/>
</g>
</svg>
